#define grid_width 10
#define grid_height 10
static unsigned char grid_bits[] = {
   0x00, 0x00, 0x00, 0x00, 0x49, 0x02, 0x00, 0x00, 0x00, 0x00, 0x00, 0x02,
   0x00, 0x00, 0x00, 0x00, 0x00, 0x02, 0x00, 0x00};
