#define switch_unknown_width 16
#define switch_unknown_height 16
static unsigned char switch_unknown_bits[] = {
	0x00, 0x00, 0x00, 0x00, 0x00, 0x00, 0x80, 0x01, 0x80, 0x01, 0x80, 0x01,
	0x80, 0x01, 0x80, 0x01, 0x80, 0x01, 0x80, 0x01, 0xff, 0xff, 0xff, 0xff,
	0xff, 0xff, 0x00, 0x00, 0x00, 0x00, 0x00, 0x00
};
