#define file_small_xbm_width 16
#define file_small_xbm_height 16
static char file_small_xbm_bits[] = {
   0xFC, 0x07, 0x04, 0x0C, 0x04, 0x14, 0x04, 0x24, 0x04, 0x7C, 0x04, 0x40,
   0x04, 0x40, 0x04, 0x40, 0x04, 0x40, 0x04, 0x40, 0x04, 0x40, 0x04, 0x40,
   0x04, 0x40, 0x04, 0x40, 0x04, 0x40, 0xFC, 0x7F };
