#define file_small_mask_xbm_width 16
#define file_small_mask_xbm_height 16
static char file_small_mask_xbm_bits[] = {
   0xFC, 0x07, 0xFC, 0x0F, 0xFC, 0x1F, 0xFC, 0x3F, 0xFC, 0x7F, 0xFC, 0x7F,
   0xFC, 0x7F, 0xFC, 0x7F, 0xFC, 0x7F, 0xFC, 0x7F, 0xFC, 0x7F, 0xFC, 0x7F,
   0xFC, 0x7F, 0xFC, 0x7F, 0xFC, 0x7F, 0xFC, 0x7F };
