#define 1159380_tmp_width 16
#define 1159380_tmp_height 16
static char 1159380_tmp_bits[] = {
   0x0C, 0x00, 0x3F, 0x03, 0xFF, 0x0F, 0xFF, 0x1F, 0xFF, 0x1F, 0xFF, 0x1F,
   0xFF, 0x1F, 0xFF, 0x1F, 0xFF, 0x1F, 0xFF, 0x1F, 0xFF, 0x1F, 0xFE, 0x1F,
   0xF8, 0x3F, 0xE0, 0x7F, 0x80, 0x7F, 0x00, 0x3E };
