#define file_small_xbm_width 16
#define file_small_xbm_height 16
static char file_small_xbm_bits[] = {
   0x0C, 0x00, 0x33, 0x03, 0xCD, 0x0F, 0x31, 0x1F, 0xC1, 0x1C, 0x01, 0x13,
   0x01, 0x14, 0x01, 0x14, 0x01, 0x14, 0x01, 0x14, 0x01, 0x14, 0x06, 0x14,
   0x18, 0x34, 0x60, 0x74, 0x80, 0x75, 0x00, 0x3E };
